{"title":"Aces Go Places 5.avi","uid":14159269,"size":732833792,"categoryP":"video","categoryS":"movies","magnet":"?xt=urn:btih:ccaaae20df7e81d22de13a70e7f4e2dde5ea3edc&amp;dn=Aces+Go+Places+5.avi&amp;tr=udp%3A%2F%2Ftracker.leechers-paradise.org%3A6969&amp;tr=udp%3A%2F%2Fzer0day.ch%3A1337&amp;tr=udp%3A%2F%2Fopen.demonii.com%3A1337&amp;tr=udp%3A%2F%2Ftracker.coppersurfer.tk%3A6969&amp;tr=udp%3A%2F%2Fexodus.desync.com%3A6969","seeders":0,"leechers":0,"uploader":null,"files":1,"time":1459700522,"description":"Two friends who own an investment firm turn to a policeman friend for help when they are framed for robbery by a gang of antiquities smugglers.\r\n\r\n\r\nFormat                                   : AVI\r\nFormat/Info                              : Audio Video Interleave\r\nFile size                                : 699 MiB\r\nDuration                                 : 1h 37mn\r\nOverall bit rate mode                    : Variable\r\nOverall bit rate                         : 998 Kbps\r\nWriting application                      : VirtualDubMod 1.5.4.1 (build 2178/release)\r\nWriting library                          : VirtualDubMod build 2178/release\r\n\r\nVideo\r\nID                                       : 0\r\nFormat                                   : MPEG-4 Visual\r\nFormat profile                           : Advanced   \r\nFormat settings, BVOP                    : 1\r\nFormat settings, QPel                    : No\r\nFormat settings, GMC                     : No warppoints\r\nFormat settings, Matrix                  : Custom\r\nCodec ID                                 : XVID\r\nCodec ID/Hint                            : XviD\r\nDuration                                 : 1h 37mn\r\nBit rate                                 : 870 Kbps\r\nWidth                                    : 576 pixels\r\nHeight                                   : 256 pixels\r\nDisplay aspect ratio                     : 2.25:1\r\nFrame rate                               : 29.970 (29970/1000) fps\r\nColor space                              : YUV\r\nChroma subsampling                       : 4:2:0\r\nBit depth                                : 8 bits\r\nScan type                                : Progressive\r\nCompression mode                         : Lossy\r\nBits/(Pixel*Frame)                       : 0.197\r\nStream size                              : 609 MiB (87%)\r\nWriting library                          : XviD 1.2.0.dev47 (UTC 2006-11-01)\r\n\r\nAudio\r\nID                                       : 1\r\nFormat                                   : MPEG Audio\r\nFormat version                           : Version 1\r\nFormat profile                           : Layer 3\r\nMode                                     : Joint stereo\r\nMode extension                           : MS Stereo\r\nCodec ID                                 : 55\r\nCodec ID/Hint                            : MP3\r\nDuration                                 : 1h 37mn\r\nBit rate mode                            : Variable\r\nBit rate                                 : 114 Kbps\r\nNominal bit rate                         : 128 Kbps\r\nChannel(s)                               : 2 channels\r\nSampling rate                            : 48.0 KHz\r\nCompression mode                         : Lossy\r\nStream size                              : 79.9 MiB (11%)\r\nAlignment                                : Aligned on interleaves\r\nInterleave, duration                     : 24 ms (0.72 video frame)\r\nInterleave, preload duration             : 548 ms\r\nWriting library                          : LAME3.97 \r\nEncoding settings                        : -m j -V 4 -q 2 -lowpass 17 --abr 128\r\nLanguage                                 : English","torrent":{"xt":"urn:btih:ccaaae20df7e81d22de13a70e7f4e2dde5ea3edc","amp;dn":"Aces+Go+Places+5.avi","amp;tr":["udp%3A%2F%2Ftracker.leechers-paradise.org%3A6969","udp%3A%2F%2Fzer0day.ch%3A1337","udp%3A%2F%2Fopen.demonii.com%3A1337","udp%3A%2F%2Ftracker.coppersurfer.tk%3A6969","udp%3A%2F%2Fexodus.desync.com%3A6969"],"infoHash":"ccaaae20df7e81d22de13a70e7f4e2dde5ea3edc","infoHashBuffer":{"type":"Buffer","data":[204,170,174,32,223,126,129,210,45,225,58,112,231,244,226,221,229,234,62,220]},"announce":[],"urlList":[]}}